<?xml version="1.0" encoding="UTF-8"?>
<svg id="_Слой_1" data-name="Слой 1" xmlns="http://www.w3.org/2000/svg" viewBox="0 0 78 73">
  <defs>
    <style>
      .cls-1 {
        fill: #242427;
      }
    </style>
  </defs>
  <path class="cls-1" d="m.01,9.54c0-.14,0-.29-.01-.43.11-.81.56-1.42,1.17-1.94.14-.12.29-.21.29-.44,0-.59.33-1,.8-1.32.56-.39,1.2-.6,1.85-.77,1.19-.3,2.38-.58,3.53-1,.36-.13.73-.26,1.05-.48.18-.01.34-.1.5-.18.1-.05.13-.13.1-.24-.08-.15-.26-.22-.31-.39.1-.17.29-.23.44-.32.39-.23.81-.4,1.24-.55.27-.09.27-.15.13-.4-.09-.15-.25-.27-.29-.49.63-.13,1.25-.05,1.85-.13.07-.21-.19-.25-.15-.41.03-.02.05-.05.08-.05,1.68.02,3.3.31,4.78,1.17.01,0,.03.02.04.03.28.24.53.26.84.02.26-.21.59-.33.92-.42.15-.04.29-.07.44-.1.19-.04.28.04.3.23.06.62.11,1.23-.09,1.84,0,.12-.02.24-.03.36,0,.09.04.16.09.23.43.55.71,1.16.81,1.86.02.12.07.22.14.32.74,1.09,1.1,2.34,1.42,3.6.03.13.05.25.08.38-.02.3.08.59.12.89.21,1.46.2,2.93.22,4.4,0,.23-.04.47.08.69,0,.12-.01.24-.02.36v1.17c-.19.04-.28-.17-.47-.12.09,1.06.18,2.13.27,3.23-.38-.14-.48-.57-.88-.65.08.78.15,1.53.23,2.28,0,.03.04.05.07.07,0,.13,0,.25.06.37.13.95.4,1.86.85,2.7.21.39.45.75.77,1.05.78.73,1.72.65,2.35-.2.22-.3.38-.63.53-.97.29-.7.45-1.44.66-2.16.08-.28-.08-.32-.24-.4.05-.14.11-.27.16-.41.25-.49.48-.99.76-1.47.13-.23-.02-.26-.15-.32.72-.99,1.58-1.86,2.12-2.96.21-.43.55-.8.9-1.14.14-.13.27-.26.41-.39.25-.15.32-.34.21-.63-.1-.25-.08-.53-.03-.8.22-1.14.76-2.07,1.8-2.66.13-.08.26-.17.39-.25.63-.32,1.29-.44,2.01-.38-.09-.47-.12-.88-.02-1.3.03-.11.07-.22.1-.33.61-1.25,1.59-1.95,3-1.98.05-.16-.02-.28-.05-.41-.28-1.34.38-2.67,1.64-3.21.24-.1.24-.24.22-.42,0-.13,0-.25,0-.38-.07-1.73,1.57-3.02,3.31-2.57.56.14,1.07.39,1.56.69.44.27.9.53,1.37.75.14.06.25.11.37,0,.33-.29.69-.27,1.08-.14.47.16.9.07,1.34-.17.52-.28,1.05-.53,1.59-.77.63-.29,1.3-.37,1.98-.25.72.13,1.31.47,1.63,1.14.19.4.33.84.29,1.3-.02.12-.04.24-.06.36-.13.28-.11.38.13.41.22.02.43.05.63.12.13.08.26.15.39.23,1.12.79,1.21,1.88.83,3.08,1.73.17,2.67.87,2.94,2.17-.02.14.02.28.08.41.03.32-.1.62-.13.96.44.01.87-.05,1.3.05.85.19,1.52.65,2.08,1.3.14.19.27.39.41.58.3.79.56,1.58.04,2.39-.06.09,0,.17.12.23.32.15.63.31.94.47.16.15.31.3.51.39.46.39.91.8,1.3,1.25.68.77,1.25,1.61,1.79,2.48.46.74.92,1.47,1.38,2.21.09.13.12.29.26.37.48.79.97,1.57,1.42,2.37.16.29.32.39.66.36,1.45-.14,2.67.34,3.67,1.39.39.42.73.88,1.01,1.38.09.16.19.32.28.47.02.14.07.26.16.37.09.47.33.9.43,1.36.32,1.51.59,3.04.54,4.6,0,.13-.02.26-.03.39-.15.96-.3,1.91-.43,2.87-.14,1.02-.3,2.05-.25,3.09,0,.13,0,.26-.01.4-.04.94.08,1.88.24,2.8.14.75.33,1.49.61,2.21.12.3.18.61.16.93q-.29.26-.65-.02c-.44-.54-.74-1.16-1.01-1.79-.23-.53-.33-1.13-.86-1.48-.08-.05-.11-.16-.17-.25-.29-.42-.34-.91-.39-1.38-.04-.43-.2-.76-.5-1.05-.05-.13-.1-.26-.15-.38-.24-.67-.24-1.38-.27-2.08-.06-1.26.06-2.5.19-3.75.12-.15.08-.32.08-.49,0-.05,0-.1,0-.15.24-.9.33-1.83.45-2.76.13-1.05.05-2.08-.36-3.07-.06-.13-.13-.27-.19-.4-.56-1.08-1.46-1.75-2.25-1.65.21.56.42,1.12.63,1.68.03.14.06.28.09.42.38,1.16.54,2.35.59,3.56.04.79-.04,1.58-.09,2.36-.02.12-.04.25-.05.37-.16.88-.32,1.77-.59,2.63-.04.14-.06.31-.22.37-.14.05-.17-.2-.36-.16-.33,1.02-.61,2.06-.81,3.13-.03.14-.07.28-.1.42-.03.09-.09.18-.1.28-.08.76-.14,1.52-.22,2.28-.13.8-.14,1.6,0,2.4.04.33.07.66.11.99,0,.14.02.27.08.4.08.36.12.73.26,1.06.41.94.87,1.85,1.52,2.66.16.2.19.38.09.64-.19.51-.36,1.03-.45,1.57-.44,1.14-.61,2.33-.82,3.52-.28,1.55-.56,3.1-.77,4.66-.2,1.43-.38,2.86-.46,4.3-.04.84-.11,1.67-.09,2.51,0,.2-.05.34-.24.44-1.39.73-2.16,1.93-2.61,3.37-.2.63-.2.63-.85.63-2.03,0-4.05,0-6.08,0-.08,0-.17,0-.25,0-.34-.02-.38-.06-.38-.38,0-.77.34-1.39.93-1.88.53-.44,1.16-.68,1.82-.84.51-.13,1.03-.19,1.52-.38.32-.12.62-.26.89-.47.39-.32.6-.72.57-1.23-.02-.24,0-.46.13-.68,1.06-1.82,1.65-3.81,2.09-5.85.28-1.3.48-2.61.42-3.94-.06-1.35-.38-2.62-1.06-3.79-.09-.21-.18-.43-.28-.64-.17-.36-.36-.71-.52-1.07-.36-.84-.71-1.67-1.04-2.52-.22-.57-.39-1.15-.58-1.73-.01-.16-.09-.29-.18-.42-.2-.13-.39-.26-.59-.38-.19-.11-.28-.37-.56-.39-.02.29-.06.55,0,.82,0,.12-.01.24-.02.37-.05.99,0,1.97.17,2.95.17.98.42,1.93,1.18,2.65.14.13,0,.25,0,.37-.76,1.32-1.28,2.74-1.84,4.14-1.27,3.17-2.28,6.42-2.9,9.79-.05.26-.12.53-.14.79-.02.24-.14.35-.34.45-1.49.74-2.43,1.93-2.86,3.53-.17.65-.19.64-.84.64-2.06,0-4.12,0-6.19,0-.14,0-.27,0-.41,0-.18,0-.26-.11-.28-.29-.08-.82.17-1.49.9-1.94.39-.24.82-.38,1.27-.48.77-.17,1.48-.46,2.04-1.04.38-.39.62-.85.65-1.38.02-.28.14-.46.33-.64,1.83-1.72,3.23-3.74,4.17-6.06.64-1.59,1.03-3.23.97-4.96-.03-.88-.19-1.73-.48-2.56-.13-.48-.32-.95-.43-1.43-.19-.78-.53-1.5-.77-2.26-.24-.77-.58-1.5-.87-2.26-.06-.14-.11-.28-.17-.42-.26-.61-.44-1.25-.74-1.85-.07-.42-.27-.8-.39-1.2-.31-.93-.53-1.89-.64-2.87,0-.14.01-.27-.06-.4-.02-.57-.03-1.13.02-1.7-.28-.03-.44.11-.62.2-.86.43-1.66.96-2.5,1.43-.21.14-.43.28-.64.42-.26.13-.51.25-.77.39-1.09.57-2.24.97-3.47,1.14-1.07.14-2.15.16-3.23.06-.7-.07-1.41-.17-2.11-.25-.42-.05-.45-.02-.42.39.11,1.42.11,2.85.18,4.27,0,.13,0,.27,0,.4.01,1.98.02,3.96.03,5.95-.08.55,0,1.1.02,1.66.11,2.4.04,4.8-.24,7.19-.24,2.08-.27,4.16.27,6.2.06.24.02.39-.19.55-1.15.82-1.93,1.92-2.3,3.28-.08.28-.22.37-.5.37-2.11,0-4.22,0-6.34,0-.45,0-.48-.05-.43-.51.14-1.26.95-1.99,2.32-2.09.19-.01.37,0,.56-.02.72-.07,1.09-.47.99-1.18-.05-.4.06-.65.35-.91.85-.77,1.32-1.77,1.64-2.85.34-1.13.48-2.3.59-3.47.12-1.19.2-2.38.13-3.57-.05-.99-.23-1.96-.84-2.75-.41-.52-.67-1.05-.7-1.7,0-.07-.02-.13-.02-.2-.02-1.85-.55-3.55-1.4-5.2-.13.11-.11.2-.11.28-.06.97-.25,1.92-.4,2.87-.1.68-.24,1.34-.37,2.02-.57,2.11-.95,4.26-1.3,6.41-.32,1.99-.47,4-.42,6.02.02.64.08,1.27.15,1.91.02.21-.01.34-.18.47-1.19.91-1.88,2.13-2.22,3.56-.06.27-.08.62-.25.79-.19.18-.55.06-.83.06-2.06,0-4.12,0-6.19,0-.14,0-.27,0-.41,0-.16,0-.21-.09-.2-.23.1-.98.5-1.77,1.43-2.23.43-.21.89-.33,1.35-.41.38-.07.76-.15,1.12-.3.93-.36,1.43-1.04,1.53-2.01.03-.3.12-.55.27-.79,1.19-1.95,1.91-4.06,2.1-6.35.13-1.56.09-3.11-.54-4.55-.34-.77-.42-1.53-.4-2.33.07-.2.05-.4.05-.6,0-1.83-.32-3.62-.75-5.39-.02-.13-.04-.25-.05-.38-.25-1.14-.59-2.25-.98-3.35-.28-.8-.63-1.55-1.03-2.29-.08-.15-.15-.31-.34-.34-.55-.18-1.11-.29-1.67-.42-.15-.02-.29-.05-.44-.07-.08,0-.12.05-.08.13.07.13.14.27.21.4.13.26.21.54.29.87-.79-.32-1.52-.67-2.29-.92-.29-.14-.58-.28-.87-.41-.3-.16-.6-.31-.99-.51.08.26.07.44.19.59,0,.14,0,.27.01.41.02.11-.01.16-.13.1-.09-.05-.16-.11-.24-.16-.22-.14-.43-.28-.65-.42-.42-.26-.84-.53-1.27-.79-.13-.08-.26-.17-.41-.2-.39-.4-.89-.67-1.31-1.07-.13.37-.13.72-.41,1-.62-1.14-1.46-2.08-2.22-3.07-.54-.7-.99-1.46-1.38-2.26-.14.13-.06.38-.27.45-.08-.12-.16-.24-.24-.37-.27-.66-.55-1.31-.75-2-.18-.61-.36-1.22-.47-1.84-.18-.48-.15-1.01-.3-1.5-.14-.05-.14.11-.22.15-.03.04-.06.08-.09.11-.06.06-.11.13-.21.09-.1-.04-.06-.14-.07-.21-.03-.25-.06-.49-.08-.74-.02-.14-.04-.28-.05-.42-.02-.08-.06-.16-.07-.24-.09-1.74-.19-3.49.08-5.22.03-.17.07-.35-.08-.52-.11.09-.19.19-.29.22-.19.06-.09-.11-.11-.18.06-.13.08-.27.08-.41.14-.48.15-.98.24-1.47.26-1.48.43-2.98.4-4.49,0-.13,0-.25-.01-.38,0-.22,0-.44,0-.65.02-.58-.08-1.14-.35-1.64-.32-.6-.77-1.04-1.52-1.08-.51-.03-1.02-.14-1.52-.25-1.3-.29-2.46-.07-3.46.85-.11.04-.21.13-.33.07-.12-.3-.32-.55-.51-.8-.35-.46-.72-.89-1.3-1.13-.54-.22-.84-.69-.88-1.29Z"/>
</svg>