<?xml version="1.0" encoding="UTF-8"?>
<svg id="_Слой_1" data-name="Слой 1" xmlns="http://www.w3.org/2000/svg" viewBox="0 0 41 39">
  <defs>
    <style>
      .cls-1 {
        fill: #fff;
      }
    </style>
  </defs>
  <path class="cls-1" d="m0,5.1c0-.08,0-.15,0-.23.06-.43.3-.76.61-1.04.07-.06.15-.11.15-.23,0-.32.17-.53.42-.71.3-.21.63-.32.97-.41.62-.16,1.25-.31,1.85-.53.19-.07.38-.14.55-.26.1,0,.18-.05.26-.1.05-.03.07-.07.05-.13-.04-.08-.14-.12-.16-.21.05-.09.15-.12.23-.17.21-.12.42-.22.65-.29.14-.05.14-.08.07-.21-.05-.08-.13-.14-.15-.26.33-.07.66-.03.97-.07.04-.11-.1-.13-.08-.22.02,0,.03-.03.04-.03.89.01,1.74.17,2.51.63,0,0,.02,0,.02.01.14.13.28.14.44.01.14-.11.31-.18.48-.22.08-.02.15-.04.23-.05.1-.02.15.02.16.13.03.33.06.66-.05.98,0,.06,0,.13-.01.19,0,.05.02.08.05.12.22.29.37.62.42.99,0,.06.04.12.07.17.39.58.58,1.25.75,1.92.01.07.03.13.04.2,0,.16.04.32.07.47.11.78.11,1.57.11,2.35,0,.12-.02.25.04.37,0,.06,0,.13,0,.19v.63c-.1.02-.15-.09-.25-.07.05.57.09,1.14.14,1.73-.2-.08-.25-.31-.46-.35.04.42.08.82.12,1.22,0,.01.02.03.03.04,0,.07,0,.14.03.2.07.51.21.99.45,1.44.11.21.24.4.4.56.41.39.9.35,1.24-.11.12-.16.2-.34.28-.52.15-.37.24-.77.35-1.16.04-.15-.04-.17-.13-.21.03-.07.06-.14.08-.22.13-.26.25-.53.4-.79.07-.12-.01-.14-.08-.17.38-.53.83-.99,1.12-1.58.11-.23.29-.43.47-.61.07-.07.14-.14.21-.21.13-.08.17-.18.11-.33-.05-.13-.04-.29-.01-.43.11-.61.4-1.1.94-1.42.07-.04.14-.09.21-.13.33-.17.68-.24,1.06-.2-.05-.25-.06-.47,0-.69.02-.06.03-.12.05-.18.32-.67.84-1.04,1.58-1.06.03-.09,0-.15-.02-.22-.15-.72.2-1.43.86-1.71.13-.05.13-.13.11-.23,0-.07,0-.14,0-.2-.04-.93.83-1.61,1.74-1.37.29.08.56.21.82.37.23.15.47.28.72.4.07.03.13.06.19,0,.17-.15.36-.15.57-.08.24.08.48.04.7-.09.27-.15.55-.28.83-.41.33-.15.68-.2,1.04-.14.38.07.69.25.86.61.1.21.17.45.15.69,0,.06-.02.13-.03.19-.07.15-.06.2.07.22.11.01.22.03.33.06.07.04.14.08.2.12.59.42.64,1,.44,1.64.91.09,1.4.46,1.55,1.16-.01.08.01.15.04.22.01.17-.05.33-.07.51.23,0,.46-.03.68.02.45.1.8.35,1.09.69.07.1.14.21.21.31.16.42.29.85.02,1.28-.03.05,0,.09.06.12.17.08.33.17.5.25.08.08.16.16.27.21.24.21.48.43.69.67.36.41.66.86.94,1.32.24.39.48.79.73,1.18.05.07.06.15.14.2.25.42.51.84.75,1.27.09.15.17.21.35.19.76-.08,1.4.18,1.93.75.21.22.38.47.53.74.05.09.1.17.15.25.01.07.04.14.08.2.05.25.17.48.23.73.17.81.31,1.62.28,2.45,0,.07,0,.14-.01.21-.08.51-.16,1.02-.23,1.53-.08.55-.16,1.09-.13,1.65,0,.07,0,.14,0,.21-.02.5.04,1,.13,1.49.07.4.17.8.32,1.18.06.16.1.33.08.5q-.15.14-.34-.01c-.23-.29-.39-.62-.53-.96-.12-.28-.17-.6-.45-.79-.04-.03-.06-.09-.09-.13-.15-.22-.18-.49-.2-.74-.02-.23-.1-.41-.26-.56-.03-.07-.05-.14-.08-.2-.13-.36-.12-.74-.14-1.11-.03-.67.03-1.34.1-2,.06-.08.04-.17.04-.26,0-.03,0-.05,0-.08.13-.48.18-.98.24-1.47.07-.56.03-1.11-.19-1.64-.03-.07-.07-.14-.1-.21-.3-.58-.77-.93-1.18-.88.11.3.22.6.33.9.02.07.03.15.05.22.2.62.28,1.26.31,1.9.02.42-.02.84-.05,1.26,0,.07-.02.13-.03.2-.09.47-.17.94-.31,1.4-.02.07-.03.17-.12.2-.07.03-.09-.11-.19-.09-.17.55-.32,1.1-.43,1.67-.02.07-.04.15-.05.22-.02.05-.04.1-.05.15-.04.4-.08.81-.11,1.22-.07.43-.07.85,0,1.28.02.18.04.35.06.53,0,.07.01.15.04.21.04.19.06.39.14.57.21.5.46.99.8,1.42.08.11.1.21.05.34-.1.27-.19.55-.24.84-.23.61-.32,1.25-.43,1.88-.15.83-.29,1.66-.41,2.49-.1.76-.2,1.53-.24,2.3-.02.45-.06.89-.05,1.34,0,.11-.02.18-.13.24-.73.39-1.14,1.03-1.37,1.8-.1.34-.11.34-.45.34-1.07,0-2.13,0-3.2,0-.04,0-.09,0-.13,0-.18,0-.2-.03-.2-.21,0-.41.18-.74.49-1,.28-.23.61-.36.96-.45.27-.07.54-.1.8-.2.17-.06.33-.14.47-.25.2-.17.32-.38.3-.66,0-.13,0-.24.07-.36.56-.97.87-2.04,1.1-3.13.15-.69.25-1.39.22-2.11-.03-.72-.2-1.4-.56-2.02-.05-.11-.1-.23-.15-.34-.09-.19-.19-.38-.27-.57-.19-.45-.37-.89-.55-1.35-.11-.3-.2-.62-.3-.92,0-.09-.05-.16-.1-.23-.1-.07-.2-.14-.31-.2-.1-.06-.15-.2-.29-.21,0,.15-.03.3,0,.44,0,.07,0,.13,0,.2-.03.53,0,1.05.09,1.58.09.52.22,1.03.62,1.41.07.07,0,.13,0,.2-.4.7-.67,1.46-.97,2.21-.67,1.69-1.2,3.43-1.52,5.23-.03.14-.06.28-.07.42-.01.13-.07.19-.18.24-.78.4-1.28,1.03-1.5,1.89-.09.35-.1.34-.44.34-1.08,0-2.17,0-3.25,0-.07,0-.14,0-.21,0-.1,0-.14-.06-.15-.15-.04-.44.09-.8.47-1.03.21-.13.43-.2.67-.26.41-.09.78-.25,1.07-.56.2-.21.33-.45.34-.74,0-.15.08-.24.18-.34.96-.92,1.7-2,2.19-3.24.34-.85.54-1.73.51-2.65-.01-.47-.1-.93-.25-1.37-.07-.26-.17-.51-.23-.76-.1-.42-.28-.8-.4-1.21-.13-.41-.3-.8-.46-1.2-.03-.07-.06-.15-.09-.22-.14-.33-.23-.67-.39-.99-.04-.22-.14-.42-.2-.64-.16-.5-.28-1.01-.34-1.53,0-.07,0-.15-.03-.21-.01-.3-.02-.6.01-.91-.15-.01-.23.06-.32.11-.45.23-.87.51-1.31.77-.11.07-.22.15-.34.22-.13.07-.27.14-.4.21-.57.31-1.18.52-1.82.61-.56.08-1.13.09-1.7.03-.37-.04-.74-.09-1.11-.13-.22-.02-.24-.01-.22.21.06.76.06,1.52.1,2.28,0,.07,0,.14,0,.21,0,1.06.01,2.12.02,3.18-.04.3,0,.59.01.89.06,1.28.02,2.56-.12,3.84-.13,1.11-.14,2.22.14,3.31.03.13.01.21-.1.29-.6.44-1.01,1.02-1.21,1.75-.04.15-.11.2-.26.2-1.11,0-2.22,0-3.33,0-.24,0-.25-.03-.23-.27.07-.67.5-1.06,1.22-1.12.1,0,.2,0,.29-.01.38-.04.57-.25.52-.63-.03-.21.03-.35.18-.49.45-.41.7-.94.86-1.52.18-.61.25-1.23.31-1.85.06-.63.1-1.27.07-1.91-.03-.53-.12-1.05-.44-1.47-.21-.28-.35-.56-.37-.91,0-.04,0-.07-.01-.11-.01-.99-.29-1.9-.74-2.78-.07.06-.06.11-.06.15-.03.52-.13,1.02-.21,1.54-.05.36-.13.72-.19,1.08-.3,1.13-.5,2.27-.68,3.42-.17,1.07-.24,2.14-.22,3.22,0,.34.04.68.08,1.02.01.11,0,.18-.1.25-.63.49-.99,1.14-1.17,1.9-.03.15-.04.33-.13.42-.1.1-.29.03-.44.03-1.08,0-2.17,0-3.25,0-.07,0-.14,0-.21,0-.08,0-.11-.05-.1-.12.05-.52.26-.95.75-1.19.22-.11.47-.17.71-.22.2-.04.4-.08.59-.16.49-.19.75-.56.8-1.07.02-.16.06-.29.14-.42.63-1.04,1-2.17,1.1-3.39.07-.84.05-1.66-.28-2.43-.18-.41-.22-.82-.21-1.25.04-.1.02-.21.02-.32,0-.98-.17-1.93-.39-2.88,0-.07-.02-.13-.03-.2-.13-.61-.31-1.2-.51-1.79-.15-.43-.33-.83-.54-1.22-.04-.08-.08-.16-.18-.18-.29-.09-.59-.16-.88-.22-.08-.01-.16-.03-.23-.04-.04,0-.06.03-.04.07.04.07.07.14.11.21.07.14.11.29.15.47-.42-.17-.8-.36-1.2-.49-.15-.07-.3-.15-.46-.22-.16-.08-.32-.17-.52-.28.04.14.04.23.1.31,0,.07,0,.15,0,.22,0,.06,0,.09-.07.05-.04-.02-.09-.06-.13-.09-.11-.07-.23-.15-.34-.22-.22-.14-.44-.28-.67-.42-.07-.04-.13-.09-.21-.11-.21-.22-.47-.36-.69-.57-.07.2-.07.38-.22.54-.33-.61-.77-1.11-1.17-1.64-.28-.37-.52-.78-.72-1.21-.08.07-.03.2-.14.24-.04-.07-.08-.13-.12-.2-.14-.35-.29-.7-.39-1.07-.1-.32-.19-.65-.25-.98-.09-.26-.08-.54-.16-.8-.08-.02-.08.06-.12.08-.02.02-.03.04-.05.06-.03.03-.06.07-.11.05-.05-.02-.03-.07-.03-.11-.01-.13-.03-.26-.04-.39,0-.07-.02-.15-.03-.22-.01-.04-.03-.08-.03-.13-.05-.93-.1-1.86.04-2.79.01-.09.03-.19-.04-.28-.06.05-.1.1-.15.12-.1.03-.05-.06-.06-.09.03-.07.04-.14.04-.22.07-.26.08-.52.12-.78.14-.79.22-1.59.21-2.4,0-.07,0-.14,0-.2,0-.12,0-.23,0-.35,0-.31-.04-.61-.18-.88-.17-.32-.4-.55-.8-.58-.27-.02-.54-.07-.8-.13-.68-.16-1.3-.04-1.82.45-.06.02-.11.07-.18.04-.06-.16-.17-.29-.27-.43-.19-.25-.38-.48-.68-.6-.28-.12-.44-.37-.46-.69Z"/>
</svg>