<?xml version="1.0" encoding="UTF-8"?>
<svg id="_Слой_1" data-name="Слой 1" xmlns="http://www.w3.org/2000/svg" viewBox="0 0 106.08 95.04">
  <defs>
    <style>
      .cls-1 {
        fill: #fff;
      }
    </style>
  </defs>
  <path class="cls-1" d="m97.59,8.58c-12.19-11.61-30.98-11.05-42.74-.68-.99.91-2.62.91-3.62,0,0,0,0,0,0,0-11.76-10.37-30.55-10.93-42.74.68-11.49,12.24-10.93,31.07-.66,43.1.54.61,1.09,1.23,1.65,1.84,12.64,14.22,28.14,29.32,41.8,40.89.98.84,2.55.84,3.53,0,13.66-11.57,29.16-26.67,41.8-40.89.55-.62,1.1-1.23,1.64-1.84,10.28-12.03,10.84-30.86-.66-43.1Zm-19.48,42.99c-.3-.39-.5-.84-.69-1.3-.16-.38-.23-.82-.59-1.08-.05-.04-.08-.12-.12-.18-.2-.3-.24-.66-.27-1-.03-.31-.14-.56-.35-.76-.04-.09-.07-.19-.11-.28-.17-.49-.16-1-.19-1.51-.04-.91.04-1.82.12-2.72.08-.11.05-.24.05-.36,0-.04,0-.07,0-.11.16-.66.22-1.33.3-2,.09-.76.02-1.5-.27-2.22-.04-.1-.09-.19-.13-.29-.4-.79-1.03-1.27-1.58-1.21.15.41.3.81.45,1.22.02.1.04.2.06.3.27.84.39,1.71.43,2.58.03.57-.02,1.14-.05,1.71-.01.09-.02.18-.04.27-.11.64-.22,1.28-.4,1.91-.03.1-.04.23-.15.27-.1.04-.12-.15-.25-.12-.23.74-.43,1.5-.56,2.28-.02.1-.05.2-.07.31-.02.07-.06.13-.07.2-.05.55-.1,1.11-.15,1.66-.09.58-.1,1.16,0,1.75.03.24.05.48.07.72,0,.1.01.2.06.29.06.26.08.53.18.77.28.68.6,1.34,1.05,1.92.11.14.13.28.06.47-.14.37-.26.75-.32,1.14-.31.83-.44,1.69-.6,2.55-.21,1.12-.42,2.24-.58,3.36-.15,1.03-.3,2.05-.37,3.08-.04.6-.1,1.19-.09,1.79,0,.15-.04.24-.17.32-.97.53-1.53,1.39-1.87,2.41-.15.45-.15.45-.6.45-1.41.02-2.83.04-4.26.05-.06,0-.12,0-.18,0-.24-.01-.27-.04-.26-.27.02-.54.25-.98.67-1.33.38-.31.82-.49,1.29-.61.36-.09.72-.15,1.07-.28.22-.09.44-.19.63-.34.28-.23.43-.52.41-.88,0-.17,0-.32.1-.48.77-1.31,1.2-2.74,1.52-4.21.21-.94.36-1.88.33-2.85-.03-.97-.25-1.89-.72-2.74-.07-.15-.13-.31-.2-.46-.12-.26-.25-.51-.36-.78-.25-.61-.5-1.22-.72-1.83-.15-.41-.27-.84-.4-1.26,0-.12-.07-.22-.13-.31-.14-.09-.27-.19-.42-.28-.13-.08-.2-.27-.39-.28-.01.21-.04.4,0,.6,0,.09,0,.18-.01.27-.04.72,0,1.44.11,2.15.12.71.29,1.4.82,1.93.1.09,0,.18,0,.27-.54.96-.92,1.99-1.33,3.01-.92,2.3-1.66,4.65-2.13,7.05-.04.19-.09.38-.11.57-.02.17-.1.25-.24.32-1.06.54-1.74,1.38-2.05,2.52-.13.46-.14.45-.6.46-1.45.01-2.91.02-4.37.03-.1,0-.19,0-.29,0-.13,0-.19-.07-.2-.2-.06-.58.13-1.05.65-1.37.28-.17.59-.27.9-.34.55-.12,1.05-.33,1.45-.75.27-.28.45-.61.47-.99.01-.2.1-.33.24-.46,1.31-1.24,2.32-2.69,3-4.37.47-1.15.75-2.34.72-3.59-.02-.64-.13-1.26-.33-1.86-.09-.35-.22-.69-.3-1.04-.13-.57-.37-1.09-.54-1.65-.17-.56-.41-1.1-.62-1.65-.04-.1-.08-.2-.12-.31-.19-.45-.31-.92-.53-1.35-.05-.31-.19-.58-.28-.88-.22-.69-.38-1.39-.46-2.11,0-.1,0-.2-.04-.29-.01-.42-.02-.83.01-1.25-.2-.02-.32.08-.44.15-.62.31-1.19.7-1.79,1.05-.15.1-.31.21-.46.31-.18.09-.37.19-.55.28-.78.42-1.61.71-2.49.84-.77.11-1.55.12-2.32.04-.51-.05-1.01-.13-1.52-.18-.3-.03-.32-.02-.3.29.08,1.05.08,2.09.13,3.14,0,.1,0,.2,0,.29,0,1.46.02,2.91.02,4.36-.05.41,0,.81.02,1.21.08,1.75.03,3.49-.17,5.22-.17,1.5-.19,2.99.2,4.45.05.17.02.28-.14.39-.82.59-1.37,1.36-1.63,2.32-.05.2-.15.26-.35.26-1.5,0-2.99,0-4.49-.01-.32,0-.34-.04-.31-.36.09-.89.66-1.4,1.63-1.47.13,0,.26,0,.4-.01.51-.05.77-.33.7-.84-.04-.28.04-.46.24-.65.6-.55.94-1.26,1.16-2.03.24-.81.33-1.65.42-2.5.08-.86.14-1.72.09-2.59-.04-.72-.17-1.43-.61-2.01-.29-.38-.48-.77-.5-1.24,0-.05-.01-.1-.02-.15-.02-1.35-.4-2.6-1.01-3.81-.09.08-.08.15-.08.21-.04.71-.18,1.41-.28,2.11-.07.49-.17.98-.26,1.47-.4,1.54-.67,3.1-.91,4.66-.22,1.44-.32,2.89-.27,4.34.01.46.06.91.12,1.36.02.15,0,.24-.13.34-.84.64-1.32,1.51-1.55,2.52-.04.19-.05.44-.17.55-.13.13-.39.04-.59.04-1.46,0-2.91-.02-4.36-.04-.09,0-.19,0-.28,0-.11,0-.15-.06-.14-.16.06-.69.33-1.25.98-1.56.3-.15.62-.22.95-.28.27-.05.53-.1.79-.2.65-.25,1-.73,1.06-1.42.02-.21.08-.39.19-.57.83-1.39,1.33-2.9,1.46-4.56.09-1.13.05-2.25-.4-3.3-.24-.56-.3-1.12-.3-1.7.05-.14.03-.29.03-.44,0-1.34-.24-2.65-.55-3.95-.01-.09-.03-.18-.04-.28-.18-.84-.42-1.65-.7-2.46-.2-.58-.45-1.14-.74-1.68-.06-.11-.11-.22-.25-.25-.39-.13-.79-.21-1.19-.31-.11-.02-.21-.04-.32-.05-.06,0-.08.04-.06.09.05.1.1.2.15.29.1.19.15.39.2.64-.56-.23-1.08-.49-1.63-.68-.21-.1-.41-.2-.61-.3-.21-.11-.43-.23-.7-.38.06.19.05.32.14.43,0,.1,0,.2,0,.3.01.08-.01.12-.09.07-.06-.03-.12-.08-.17-.12-.15-.1-.31-.2-.46-.3-.3-.19-.6-.38-.89-.58-.09-.06-.18-.12-.29-.15-.28-.29-.63-.49-.92-.78-.09.27-.09.52-.29.73-.44-.83-1.02-1.51-1.56-2.24-.38-.51-.69-1.06-.96-1.64-.1.1-.04.28-.19.33-.05-.09-.11-.18-.16-.27-.19-.48-.38-.95-.51-1.45-.12-.44-.24-.88-.32-1.33-.12-.35-.1-.73-.2-1.08-.1-.03-.1.08-.15.11-.02.03-.04.06-.07.08-.04.04-.08.09-.15.07-.07-.03-.04-.1-.04-.15-.02-.18-.04-.35-.05-.53-.01-.1-.02-.2-.03-.3-.02-.06-.04-.11-.04-.17-.05-1.26-.1-2.51.11-3.76.02-.12.05-.25-.05-.38-.08.06-.13.14-.21.16-.13.05-.06-.07-.08-.13.04-.09.06-.19.06-.29.1-.34.12-.7.18-1.05.2-1.06.33-2.13.34-3.2,0-.09,0-.18,0-.27,0-.15,0-.31.01-.46.02-.41-.04-.8-.22-1.16-.21-.42-.51-.72-1.03-.74-.35-.02-.7-.08-1.04-.15-.89-.19-1.68-.01-2.38.65-.07.03-.14.1-.23.06-.08-.21-.21-.38-.33-.55-.23-.32-.47-.61-.86-.77-.36-.15-.56-.47-.57-.89,0-.1,0-.2,0-.3.09-.57.41-1,.83-1.37.1-.08.2-.15.21-.31.01-.41.25-.7.57-.93.39-.28.83-.44,1.28-.56.81-.22,1.63-.44,2.43-.74.25-.1.5-.19.73-.35.13-.01.24-.07.34-.13.07-.04.09-.09.07-.17-.05-.1-.17-.14-.21-.26.08-.12.2-.16.31-.22.27-.16.56-.29.86-.39.19-.06.19-.11.1-.27-.06-.1-.16-.18-.19-.33.43-.1.86-.05,1.27-.11.05-.14-.12-.17-.1-.28.02-.01.04-.03.06-.03,1.16,0,2.27.17,3.27.74.01,0,.02.01.03.02.19.16.37.17.58,0,.19-.14.41-.23.64-.29.1-.03.21-.05.31-.07.13-.03.2.03.21.16.03.42.06.84-.09,1.26,0,.08-.02.16-.02.25,0,.06.03.11.06.15.29.38.48.8.53,1.27,0,.08.04.15.09.22.5.75.74,1.62.94,2.49.02.09.03.18.05.26-.02.21.05.41.08.62.13,1.03.11,2.07.1,3.11,0,.16-.03.33.05.49,0,.08,0,.17-.01.25,0,.28,0,.56-.01.84-.14.03-.19-.12-.33-.08.05.76.1,1.53.16,2.31-.27-.1-.33-.41-.62-.46.05.56.09,1.1.14,1.64,0,.02.03.04.05.05,0,.09,0,.18.04.26.08.68.27,1.34.58,1.95.14.28.31.54.54.76.55.53,1.21.47,1.67-.16.16-.22.28-.46.38-.71.21-.51.33-1.04.48-1.57.06-.2-.05-.23-.17-.29.04-.1.08-.2.12-.29.18-.36.35-.72.55-1.06.1-.17-.02-.19-.1-.23.52-.71,1.13-1.34,1.52-2.14.15-.31.39-.57.65-.82.1-.09.19-.19.29-.28.18-.11.23-.24.15-.45-.07-.18-.05-.38-.01-.57.16-.81.55-1.47,1.29-1.89.09-.06.19-.12.28-.18.44-.22.92-.32,1.43-.28-.06-.33-.08-.62,0-.91.02-.08.05-.16.07-.23.44-.88,1.13-1.37,2.13-1.39.04-.11-.01-.2-.03-.29-.19-.93.28-1.85,1.17-2.22.17-.07.17-.16.15-.29,0-.09,0-.18,0-.26-.04-1.19,1.11-2.06,2.33-1.76.39.1.75.26,1.09.47.31.19.63.36.97.51.1.04.18.08.26,0,.23-.2.48-.18.76-.09.33.11.64.05.94-.11.36-.19.73-.36,1.11-.52.44-.19.9-.25,1.38-.16.5.09.92.33,1.15.79.14.28.24.57.22.89-.01.08-.02.17-.04.25-.09.19-.07.26.09.28.15.02.3.04.45.08.09.05.18.11.27.16.79.55.87,1.31.62,2.14,1.22.13,1.89.62,2.09,1.53-.01.1.02.19.06.28.02.22-.07.43-.08.67.31.01.61-.03.91.04.6.14,1.07.47,1.47.93.1.14.2.28.29.42.22.56.41,1.12.05,1.69-.04.06,0,.12.08.16.23.11.45.23.67.34.11.11.22.21.36.28.33.28.64.58.93.9.48.56.9,1.16,1.28,1.79.33.53.66,1.06.99,1.6.06.09.08.21.19.27.34.57.69,1.14,1.01,1.72.12.21.22.29.47.26,1.01-.09,1.86.27,2.56,1.03.28.3.51.64.71,1,.06.12.13.23.2.34.02.1.05.19.11.27.06.34.24.65.31.99.23,1.1.43,2.2.4,3.33,0,.09-.01.19-.02.28-.1.69-.2,1.38-.29,2.08-.1.74-.2,1.49-.17,2.24,0,.1,0,.19,0,.29-.03.68.05,1.36.17,2.03.09.54.22,1.08.41,1.6.08.22.12.44.1.68q-.2.19-.45-.02Z"/>
</svg>